<?xml version="1.0" encoding="UTF-8"?>
<svg version="1.1" xmlns="http://www.w3.org/2000/svg" xmlns:xlink="http://www.w3.org/1999/xlink">
    <title>4A1E0B40-8591-4B22-883B-B93453178F1A@1x</title>
    <g id="Biometric" stroke="none" stroke-width="1" fill="none" fill-rule="evenodd">
        <g id="Biometric-flow-v3-1" transform="translate(-515.000000, -560.000000)" fill="#738794">
            <g id="Group-5" transform="translate(468.000000, 538.000000)">
                <g id="Lists/1-line/left-icon" transform="translate(17.000000, 18.935961)">
                    <g id="Group" transform="translate(25.000000, 0.000000)">
                        <g transform="translate(0.000000, 2.000000)" id="path3470">
                            <path d="M13.3214784,6.93919582 L15.0036562,8.59398496 L13.322808,10.2477934 L13.3214784,6.93919582 L13.3214784,6.93919582 L13.3214784,6.93919582 Z M13.3214784,17.0617849 L15.0036562,15.4066688 L13.322808,13.757764 L13.3214784,17.0617849 L13.3214784,17.0617849 Z M11.5272884,12.0022883 L7.89470185,8.41811049 L8.94768331,7.38215103 L11.8423852,10.2271984 L11.8423852,3.4030729 L17.1076248,8.58188951 L13.6302599,12.0022883 L17.1079572,15.4177836 L11.8423852,20.597254 L11.8423852,13.7734554 L8.94768331,16.6181759 L7.89470185,15.5822164 L11.5272884,12.0022883 L11.5272884,12.0022883 L11.5272884,12.0022883 Z M12.500831,22 C16.9414346,22 20,19.9251389 20,12.0019614 C20,4.07420726 16.9414346,2 12.500831,2 C8.06288639,2 5,4.07420726 5,12.0019614 C5,19.9251389 8.06288639,22 12.500831,22 L12.500831,22 L12.500831,22 Z"></path>
                        </g>
                    </g>
                </g>
            </g>
        </g>
    </g>
</svg>