<svg version="1.1"
  xmlns="http://www.w3.org/2000/svg" viewBox="0 0 24 32">
  <path d="M22.667 0v1.333h-1.334V4h1.334v1.333h-1.334v24H24V32H0v-2.667h2.667v-24H1.333V4h1.334V1.333H1.333V0h21.334zm-4 5.333H5.333v24H8v-4.666c0-.367.3-.667.667-.667h6.666c.367 0 .667.3.667.667v4.666h2.667v-24zm-4 20H9.333v4h5.334v-4zm-5.334-6.666v2.666H6.667v-2.666h2.666zm4 0v2.666h-2.666v-2.666h2.666zm4 0v2.666h-2.666v-2.666h2.666zm-8-4v2.666H6.667v-2.666h2.666zm4 0v2.666h-2.666v-2.666h2.666zm4 0v2.666h-2.666v-2.666h2.666zm-8-4v2.666H6.667v-2.666h2.666zm4 0v2.666h-2.666v-2.666h2.666zm4 0v2.666h-2.666v-2.666h2.666zm-8-4v2.666H6.667V6.667h2.666zm4 0v2.666h-2.666V6.667h2.666zm4 0v2.666h-2.666V6.667h2.666zm1.334-4H5.333V4h13.334V2.667z" fill="#ADB8BF" fillRule="evenodd" />
</svg>
