<svg width="24" height="24" viewBox="0 0 24 24" fill="none" xmlns="http://www.w3.org/2000/svg">
<path d="M19.9 21.9H4.09998C2.99998 21.9 2.09998 21 2.09998 19.9V6.50002C2.09998 5.40002 2.99998 4.50002 4.09998 4.50002H19.9C21 4.50002 21.9 5.40002 21.9 6.50002V19.9C21.9 21 21 21.9 19.9 21.9ZM4.09998 6.10003C3.79998 6.10003 3.59998 6.30003 3.59998 6.60003V20C3.59998 20.3 3.79998 20.5 4.09998 20.5H19.9C20.2 20.5 20.4 20.3 20.4 20V6.50002C20.4 6.20002 20.2 6.00002 19.9 6.00002H4.09998V6.10003Z" fill="#FF5E00"/>
<path d="M21.1 10.9H2.89998C2.49998 10.9 2.09998 10.6 2.09998 10.1C2.09998 9.60001 2.39998 9.30001 2.89998 9.30001H21.1C21.5 9.30001 21.9 9.60001 21.9 10.1C21.9 10.6 21.5 10.9 21.1 10.9Z" fill="#FF5E00"/>
<path d="M7.7 7.9C7.3 7.9 7 7.6 7 7.1V2.9C7 2.5 7.3 2.1 7.8 2.1C8.3 2.1 8.6 2.4 8.6 2.9V7.2C8.5 7.6 8.2 7.9 7.7 7.9Z" fill="#FF5E00"/>
<path d="M16.3 7.9C15.9 7.9 15.5 7.6 15.5 7.1V2.9C15.5 2.5 15.8 2.1 16.3 2.1C16.8 2.1 17 2.5 17 2.9V7.2C17 7.6 16.7 7.9 16.3 7.9Z" fill="#FF5E00"/>
<path d="M6.79995 14.6C6.19995 14.6 5.69995 14.1 5.69995 13.5C5.69995 12.9 6.19995 12.4 6.79995 12.4C7.39995 12.4 7.89995 12.9 7.89995 13.5C7.89995 14.1 7.39995 14.6 6.79995 14.6Z" fill="#FF5E00"/>
<path d="M6.79995 18.8C6.19995 18.8 5.69995 18.3 5.69995 17.7C5.69995 17.1 6.19995 16.6 6.79995 16.6C7.39995 16.6 7.89995 17.1 7.89995 17.7C7.89995 18.3 7.39995 18.8 6.79995 18.8Z" fill="#FF5E00"/>
<path d="M12 14.6C11.4 14.6 10.9 14.1 10.9 13.5C10.9 12.9 11.4 12.4 12 12.4C12.6 12.4 13.1 12.9 13.1 13.5C13.1 14.1 12.6 14.6 12 14.6Z" fill="#FF5E00"/>
<path d="M12 18.8C11.4 18.8 10.9 18.3 10.9 17.7C10.9 17.1 11.4 16.6 12 16.6C12.6 16.6 13.1 17.1 13.1 17.7C13.1 18.3 12.6 18.8 12 18.8Z" fill="#FF5E00"/>
<path d="M17.2 14.6C16.6 14.6 16.1 14.1 16.1 13.5C16.1 12.9 16.6 12.4 17.2 12.4C17.8 12.4 18.3 12.9 18.3 13.5C18.3 14.1 17.7 14.6 17.2 14.6Z" fill="#FF5E00"/>
<path d="M17.2 18.8C16.6 18.8 16.1 18.3 16.1 17.7C16.1 17.1 16.6 16.6 17.2 16.6C17.8 16.6 18.3 17.1 18.3 17.7C18.3 18.3 17.7 18.8 17.2 18.8Z" fill="#FF5E00"/>
</svg>
