<svg version="1.1"
  xmlns="http://www.w3.org/2000/svg" width="62" height="62" viewBox="0 0 62 62">
  <path d="M56.88 10.24a5.128 5.128 0 015.117 5.123v29.44c0 9.175-7.465 16.64-16.64 16.64h-26.88c-9.879 0-17.92-8.041-17.92-17.92v-28.16a5.125 5.125 0 015.12-5.12h7.68v5.12h-7.68v28.16h11.52c.704 0 1.28.576 1.28 1.28v11.52H33.36a16.604 16.604 0 01-4.639-11.52c0-9.175 7.465-16.64 16.64-16.64 4.465 0 8.527 1.766 11.52 4.638V15.36H49.2v-5.12h7.68zM45.36 51.2c-4.032 0-7.585 1.984-8.64 4.713a14.021 14.021 0 008.64 2.967c3.256 0 6.257-1.103 8.64-2.967-1.065-2.737-4.608-4.713-8.64-4.713zm-29.44-5.12H5.936a12.853 12.853 0 009.984 9.984V46.08zm29.445-15.363c-7.76 0-14.08 6.321-14.08 14.08a14.02 14.02 0 003.48 9.257c1.08-1.976 3.03-3.55 5.455-4.487a8.948 8.948 0 01-3.817-7.327c0-4.943 4.016-8.96 8.96-8.96 4.943 0 8.96 4.017 8.96 8.96a8.963 8.963 0 01-3.817 7.337c2.424.934 4.375 2.519 5.455 4.488a14.033 14.033 0 003.484-9.268c0-7.759-6.32-14.08-14.08-14.08zM26.16 48.64v2.56h-5.12v-2.56h5.12zm19.2-12.8a6.409 6.409 0 00-6.4 6.4c0 3.528 2.872 6.4 6.4 6.4 3.528 0 6.4-2.872 6.4-6.4 0-3.528-2.872-6.4-6.4-6.4zm-19.2 7.68v2.56h-5.12v-2.56h5.12zm0-5.12v2.56h-5.12V38.4h5.12zm-7.68 0v2.56h-5.12V38.4h5.12zm7.68-5.12v2.56h-5.12v-2.56h5.12zm-7.68 0v2.56h-5.12v-2.56h5.12zm7.68-5.12v2.56h-5.12v-2.56h5.12zm7.68 0v2.56h-5.12v-2.56h5.12zm-15.36 0v2.56h-5.12v-2.56h5.12zm15.36-5.12v2.56h-5.12v-2.56h5.12zm7.68 0v2.56H36.4v-2.56h5.12zm7.68 0v2.56h-5.12v-2.56h5.12zM21.04 0v17.92h-5.12V0h5.12zm25.6 0v17.92h-5.12V0h5.12zm-7.68 10.24v5.12H23.6v-5.12h15.36zm-25.6-7.68v5.12H.56V2.56h12.8zm25.6 0v5.12H23.6V2.56h15.36zm23.04 0v5.12H49.2V2.56H62z" fill="#738794" fillRule="evenodd" />
</svg>