<svg width="40" height="40" viewBox="0 0 24 24" fill="none" xmlns="http://www.w3.org/2000/svg">
<path d="M12 19.5C11.586 19.5 11.25 19.164 11.25 18.75V18.296C9.946 18.022 9 17.052 9 15.937C9 15.523 9.336 15.187 9.75 15.187C10.164 15.187 10.5 15.523 10.5 15.937C10.5 16.38 11.141 16.875 12 16.875C12.858 16.875 13.5 16.38 13.5 15.937C13.5 15.429 12.813 15 12 15C10.346 15 9 13.906 9 12.562C9 11.447 9.946 10.478 11.25 10.204V9.75C11.25 9.336 11.586 9 12 9C12.414 9 12.75 9.336 12.75 9.75V10.204C14.054 10.477 15 11.446 15 12.562C15 12.976 14.664 13.312 14.25 13.312C13.836 13.312 13.5 12.976 13.5 12.562C13.5 12.054 12.813 11.625 12 11.625C11.187 11.625 10.5 12.054 10.5 12.562C10.5 13.005 11.141 13.5 12 13.5C13.654 13.5 15 14.593 15 15.937C15 17.052 14.054 18.022 12.75 18.296V18.75C12.75 19.164 12.414 19.5 12 19.5Z" fill="#FF5E00"/>
<path d="M3 22.5C1.759 22.5 0.75 21.491 0.75 20.25V8.25C0.75 7.009 1.759 6 3 6H6.959L7.946 3.038C8.254 2.118 9.111 1.5 10.081 1.5H13.919C14.889 1.5 15.746 2.118 16.054 3.038L17.041 6H21C22.241 6 23.25 7.009 23.25 8.25V20.25C23.25 21.491 22.241 22.5 21 22.5H3ZM3 7.5C2.586 7.5 2.25 7.836 2.25 8.25V20.25C2.25 20.664 2.586 21 3 21H21C21.414 21 21.75 20.664 21.75 20.25V8.25C21.75 7.836 21.414 7.5 21 7.5H3ZM15.459 6L14.63 3.512C14.528 3.206 14.242 3 13.919 3H10.081C9.758 3 9.472 3.206 9.369 3.513L8.541 6H15.459Z" fill="#FF5E00"/>
</svg>
