<?xml version="1.0" encoding="UTF-8"?>
<svg xmlns="http://www.w3.org/2000/svg" id="Capa_1" enable-background="new 0 0 512 512" viewBox="0 0 512 512">
   <g>
      <g>
         <path d="m410 467c0 20.711-16.789 37.5-37.5 37.5h-233c-20.711 0-37.5-16.789-37.5-37.5v-422c0-20.711 16.789-37.5 37.5-37.5h233c20.711 0 37.5 16.789 37.5 37.5z" fill="#f8f7f7" />
         <path d="m405.93 484c-6.2 12.17-18.84 20.5-33.43 20.5h-233c-20.71 0-37.5-16.79-37.5-37.5v-422c0-14.61 8.35-27.26 20.54-33.45v447.45c0 13.81 11.19 25 25 25z" fill="#e8e8e8" />
         <path d="m374.5 87.5v109l-116.436 4.995-120.564-4.995 1-108c0-7.944 5.185-15.452 13-15.967.331-.022.664-.033 1-.033h207c8.28 0 15 6.72 15 15z" fill="#df646e" />
         <path d="m159.143 324.953c.64.603 1.645.586 2.289-.014 2.293-2.138 5.398-3.448 8.794-3.438 6.965.021 12.648 5.739 12.55 12.613-.176 12.282-17.849 22.166-21.745 24.197-.474.247-1.038.253-1.518.017-3.963-1.955-21.989-11.551-21.734-24.213.136-6.733 5.804-12.565 12.627-12.613 3.397-.026 6.466 1.309 8.737 3.451z" fill="#df646e" />
         <path d="m213.5 331.5v17c0 5.523 4.477 10 10 10h27.365c3.652 0 7.2 1.217 10.082 3.459l5.483 4.264c3.284 2.554 8.07.214 8.07-3.947v-30.776c0-5.523-4.477-10-10-10h-41c-5.523 0-10 4.477-10 10z" fill="#d6ccf2" />
         <path d="m319.5 196.5c0-31.39-22.958-57.419-52.998-62.21-3.257-.52-6.598.23-10.002.23-34.794 0-61.014 27.186-61.014 61.98l62.578 4.995z" fill="#ffd163" />
         <path d="m266.5 134.3c-30.04 4.78-53 30.81-53 62.2l-9.938 2.737-10.062-2.737c0-34.79 28.21-63 63-63 3.4 0 6.74.27 10 .8z" fill="#ffb65f" />
         <path d="m374.5 196.5v75c0 .336-.011.67-.033 1-.515 7.814-8.023 13-15.967 13h-205c-8.28 0-15-6.72-15-15v-74z" fill="#d6ccf2" />
         <path d="m151.5 72.54v123.96l-7 3.234-7-3.234v-109c0-7.94 6.18-14.45 14-14.96z" fill="#dc4955" />
         <path d="m374.46 272.5c-.51 7.82-7.02 14-14.96 14h-207c-8.284 0-15-6.716-15-15v-75h14v69c0 3.866 3.134 7 7 7z" fill="#c8b8f4" />
      </g>
      <g>
         <path d="m410 331.627c-4.142 0-7.5 3.358-7.5 7.5v127.873c0 16.542-13.458 30-30 30h-233c-16.542 0-30-13.458-30-30v-342.979c0-4.142-3.358-7.5-7.5-7.5s-7.5 3.358-7.5 7.5v342.979c0 24.813 20.187 45 45 45h233c24.813 0 45-20.187 45-45v-127.873c0-4.142-3.358-7.5-7.5-7.5z" />
         <path d="m372.5 0h-233c-24.813 0-45 20.187-45 45v43.851c0 4.142 3.358 7.5 7.5 7.5s7.5-3.358 7.5-7.5v-43.851c0-16.542 13.458-30 30-30h233c16.542 0 30 13.458 30 30v259.021c0 4.142 3.358 7.5 7.5 7.5s7.5-3.358 7.5-7.5v-259.021c0-24.813-20.187-45-45-45z" />
         <path d="m269 45c4.142 0 7.5-3.358 7.5-7.5s-3.358-7.5-7.5-7.5h-50c-4.142 0-7.5 3.358-7.5 7.5s3.358 7.5 7.5 7.5z" />
         <path d="m130 87.5v184c0 12.407 10.093 22.5 22.5 22.5h207c12.407 0 22.5-10.093 22.5-22.5v-184c0-12.407-10.093-22.5-22.5-22.5h-38.458c-4.142 0-7.5 3.358-7.5 7.5s3.358 7.5 7.5 7.5h38.458c4.136 0 7.5 3.364 7.5 7.5v101.5h-40.403c-3.757-35.36-33.757-63-70.097-63s-66.34 27.64-70.097 63h-41.403v-101.5c0-4.136 3.364-7.5 7.5-7.5h133.521c4.142 0 7.5-3.358 7.5-7.5s-3.358-7.5-7.5-7.5h-133.521c-12.407 0-22.5 10.093-22.5 22.5zm126.5 53.5c28.058 0 51.305 20.933 54.979 48h-109.958c3.674-27.067 26.921-48 54.979-48zm110.5 63v67.5c0 4.136-3.364 7.5-7.5 7.5h-207c-4.136 0-7.5-3.364-7.5-7.5v-67.5z" />
         <path d="m184.551 320.034c-3.808-3.875-8.888-6.017-14.303-6.033-.021 0-.042 0-.063 0-3.505 0-6.896.889-9.892 2.556-3.014-1.692-6.429-2.54-9.939-2.556-10.848.076-19.853 9.031-20.073 19.962-.339 16.818 19.749 28.049 25.914 31.09 1.276.629 2.668.943 4.06.943 1.46 0 2.919-.346 4.243-1.035 7.675-4 25.552-15.003 25.777-30.74.076-5.316-1.957-10.355-5.724-14.187zm-24.365 30.172c-7.852-4.41-15.011-10.867-14.908-15.941.055-2.737 2.525-5.246 5.183-5.265h.036c1.294 0 2.536.5 3.501 1.41 3.502 3.301 9.013 3.309 12.548.015.985-.918 2.277-1.424 3.641-1.424 1.401.217 4.542.646 5.089 5.006-.072 5.012-7.278 11.609-15.09 16.199z" />
         <path d="m374.5 333h-70c-4.142 0-7.5 3.358-7.5 7.5s3.358 7.5 7.5 7.5h70c4.142 0 7.5-3.358 7.5-7.5s-3.358-7.5-7.5-7.5z" />
         <path d="m137.5 402h19c4.142 0 7.5-3.358 7.5-7.5s-3.358-7.5-7.5-7.5h-19c-4.142 0-7.5 3.358-7.5 7.5s3.358 7.5 7.5 7.5z" />
         <path d="m186.5 402h69c4.142 0 7.5-3.358 7.5-7.5s-3.358-7.5-7.5-7.5h-69c-4.142 0-7.5 3.358-7.5 7.5s3.358 7.5 7.5 7.5z" />
         <path d="m374 417h-32.276c-4.142 0-7.5 3.358-7.5 7.5s3.358 7.5 7.5 7.5h32.276c4.142 0 7.5-3.358 7.5-7.5s-3.358-7.5-7.5-7.5z" />
         <path d="m311.724 417h-75.224c-4.142 0-7.5 3.358-7.5 7.5s3.358 7.5 7.5 7.5h75.224c4.142 0 7.5-3.358 7.5-7.5s-3.358-7.5-7.5-7.5z" />
         <path d="m137.5 432h69c4.142 0 7.5-3.358 7.5-7.5s-3.358-7.5-7.5-7.5h-69c-4.142 0-7.5 3.358-7.5 7.5s3.358 7.5 7.5 7.5z" />
         <path d="m224.489 462h87.011c4.142 0 7.5-3.358 7.5-7.5s-3.358-7.5-7.5-7.5h-87.011c-4.142 0-7.5 3.358-7.5 7.5s3.358 7.5 7.5 7.5z" />
         <path d="m137.5 462h52.053c4.142 0 7.5-3.358 7.5-7.5s-3.358-7.5-7.5-7.5h-52.053c-4.142 0-7.5 3.358-7.5 7.5s3.358 7.5 7.5 7.5z" />
         <path d="m250.865 366c1.974 0 3.919.667 5.478 1.879l5.482 4.265c2.251 1.75 4.939 2.647 7.656 2.647 1.868 0 3.75-.424 5.511-1.286 4.323-2.114 7.008-6.417 7.008-11.229v-30.776c0-9.649-7.851-17.5-17.5-17.5h-41c-9.649 0-17.5 7.851-17.5 17.5v17c0 9.649 7.851 17.5 17.5 17.5zm-29.865-17.5v-17c0-1.378 1.122-2.5 2.5-2.5h41c1.378 0 2.5 1.122 2.5 2.5v25.666l-1.448-1.126c-4.178-3.25-9.394-5.04-14.687-5.04h-27.365c-1.378 0-2.5-1.122-2.5-2.5z" />
         <path d="m218.5 234h76c4.142 0 7.5-3.358 7.5-7.5s-3.358-7.5-7.5-7.5h-76c-4.142 0-7.5 3.358-7.5 7.5s3.358 7.5 7.5 7.5z" />
         <path d="m280 249h-47c-4.142 0-7.5 3.358-7.5 7.5s3.358 7.5 7.5 7.5h47c4.142 0 7.5-3.358 7.5-7.5s-3.358-7.5-7.5-7.5z" />
         <circle cx="294" cy="37.5" r="7.5" />
      </g>
   </g>
</svg>